<?xml version="1.0" encoding="UTF-8" standalone="no"?>
<svg
   version="1.0"
   width="1024.000000pt"
   height="1024.000000pt"
   viewBox="0 0 1024.000000 1024.000000"
   preserveAspectRatio="xMidYMid meet"
   id="svg1"
   sodipodi:docname="whcc-logo.svg"
   inkscape:version="1.4.3 (0d15f75, 2025-12-25)"
   xmlns:inkscape="http://www.inkscape.org/namespaces/inkscape"
   xmlns:sodipodi="http://sodipodi.sourceforge.net/DTD/sodipodi-0.dtd"
   xmlns="http://www.w3.org/2000/svg"
   xmlns:svg="http://www.w3.org/2000/svg">
  <defs
     id="defs1" />
  <sodipodi:namedview
     id="namedview1"
     pagecolor="#505050"
     bordercolor="#ffffff"
     borderopacity="1"
     inkscape:showpageshadow="0"
     inkscape:pageopacity="0"
     inkscape:pagecheckerboard="1"
     inkscape:deskcolor="#505050"
     inkscape:document-units="pt"
     inkscape:zoom="0.85473633"
     inkscape:cx="683.25164"
     inkscape:cy="682.66667"
     inkscape:window-width="3440"
     inkscape:window-height="1369"
     inkscape:window-x="-8"
     inkscape:window-y="-8"
     inkscape:window-maximized="1"
     inkscape:current-layer="svg1" />
  <g
     transform="translate(0.000000,1024.000000) scale(0.100000,-0.100000)"
     fill="#000000"
     stroke="none"
     id="g1">
    <path
       d="M1030 9039 c-110 -50 -130 -99 -164 -394 -3 -27 -24 -185 -46 -350 -22 -165 -64 -489 -94 -720 -30 -231 -69 -521 -86 -645 -16 -123 -30 -241 -30 -260 0 -60 48 -140 103 -174 81 -50 138 -48 283 9 65 25 177 71 247 102 71 31 132 52 136 47 5 -5 41 -90 81 -189 40 -99 89 -220 110 -270 21 -49 113 -277 205 -505 92 -228 279 -689 416 -1025 251 -618 419 -1032 569 -1405 217 -537 280 -683 318 -734 47 -62 125 -118 207 -148 83 -30 217 -31 297 -1 104 39 202 121 251 212 33 59 682 1788 972 2586 214 591 320 873 326 867 4 -4 15 -32 24 -62 31 -97 397 -1099 575 -1575 94 -253 214 -572 265 -710 51 -137 146 -389 210 -560 64 -170 130 -348 147 -395 67 -188 136 -278 259 -339 132 -65 280 -64 412 2 70 35 165 123 195 182 11 22 121 292 245 600 443 1101 678 1685 827 2050 65 160 139 342 165 405 26 63 128 315 227 560 99 245 183 449 187 453 4 4 50 -11 102 -34 190 -84 372 -151 425 -156 72 -8 131 16 183 72 67 73 69 92 32 380 -30 230 -66 496 -91 670 -9 69 -33 244 -130 954 -56 417 -62 434 -145 486 -43 26 -58 30 -124 30 -94 0 -59 20 -596 -341 -225 -152 -612 -411 -860 -576 -247 -165 -465 -315 -483 -332 -95 -88 -106 -231 -26 -325 35 -40 79 -66 349 -206 83 -43 152 -79 154 -81 3 -3 -349 -893 -700 -1768 -142 -354 -170 -415 -177 -395 -154 415 -225 604 -392 1059 -111 300 -260 703 -332 895 -163 439 -286 771 -350 945 -28 74 -63 158 -79 186 -67 118 -184 212 -324 260 -203 69 -456 7 -604 -149 -85 -89 -103 -124 -207 -407 -45 -124 -166 -454 -269 -735 -103 -280 -245 -667 -315 -860 -70 -192 -198 -539 -284 -770 -87 -231 -159 -426 -162 -434 -2 -8 -6 -12 -8 -10 -5 5 -324 816 -423 1074 -36 94 -73 190 -84 215 -10 25 -66 167 -124 315 -58 149 -133 339 -167 423 -33 85 -57 157 -52 161 5 5 109 59 231 121 122 62 238 126 257 141 93 78 102 233 18 323 -31 34 -1826 1230 -1886 1257 -55 25 -139 24 -196 -2z m778 -716 c350 -235 725 -486 834 -559 l196 -132 -249 -118 c-137 -66 -265 -132 -285 -148 -32 -26 -36 -33 -31 -65 3 -20 79 -223 169 -451 91 -228 225 -568 298 -755 73 -187 202 -513 286 -725 228 -577 621 -1584 788 -2019 12 -32 9 -43 -56 -215 -167 -440 -157 -417 -209 -468 -52 -51 -93 -65 -155 -54 -39 8 -107 64 -130 109 -16 30 -87 205 -409 1002 -106 264 -228 566 -270 670 -409 1007 -491 1210 -835 2069 -221 552 -214 540 -298 518 -26 -7 -153 -55 -282 -107 -129 -52 -242 -97 -251 -100 -14 -5 -14 4 -2 92 7 54 33 251 57 438 93 709 191 1445 194 1445 2 0 290 -192 640 -427z m7285 375 c3 -29 33 -255 67 -503 79 -583 190 -1417 190 -1427 0 -5 -8 -4 -17 2 -21 12 -430 172 -516 202 -74 26 -97 17 -130 -49 -14 -26 -92 -217 -175 -423 -83 -206 -196 -487 -252 -625 -55 -137 -197 -488 -315 -780 -117 -291 -250 -620 -295 -730 -44 -110 -211 -527 -371 -927 -279 -697 -292 -728 -333 -766 -75 -69 -150 -78 -227 -28 -50 34 -78 84 -144 260 -30 80 -80 212 -111 294 -30 81 -84 224 -119 317 -34 94 -157 422 -273 730 -115 308 -312 835 -437 1170 -413 1108 -455 1219 -472 1237 -21 23 -55 23 -76 0 -9 -10 -139 -344 -287 -743 -694 -1855 -828 -2215 -833 -2229 -3 -11 -7 -8 -15 10 -17 43 -195 505 -277 720 -43 113 -78 212 -78 220 1 8 34 98 73 200 91 235 586 1559 732 1955 60 165 173 471 249 680 77 209 151 408 166 443 32 77 94 148 165 187 47 27 62 30 138 30 75 0 91 -3 138 -29 61 -34 121 -96 152 -155 20 -40 74 -183 310 -816 61 -165 201 -538 310 -830 109 -291 264 -708 345 -925 309 -829 323 -863 355 -892 72 -66 113 -28 205 192 195 469 235 566 335 815 137 340 636 1601 680 1718 33 86 33 88 17 122 -15 32 -36 45 -209 128 -106 52 -230 111 -275 132 -46 21 -83 41 -83 45 0 4 213 147 473 318 259 171 636 421 837 555 201 135 368 245 371 246 3 0 9 -23 12 -51z"
       id="path1" />
  </g>
  <path
     style="fill:#5f8dd3;stroke-width:1.16995"
     d="m 445.95428,1012.4842 c -9.41354,-6.2353 -5.38579,2.3057 -44.63841,-94.65729 C 321.88539,721.61537 294.16621,652.98975 256.00204,558.06684 233.23545,501.44119 212.38822,450.64107 209.67487,445.17769 c -5.67656,-11.42987 -7.94268,-13.13795 -15.25373,-11.49745 -2.68895,0.60337 -19.89363,7.05733 -38.23262,14.34212 l -33.34362,13.24511 -0.35175,-3.17139 c -0.37713,-3.40017 -0.20464,-4.76805 17.34206,-137.52938 14.52255,-109.88013 15.72705,-118.5138 16.66491,-119.45167 0.67315,-0.67315 58.40684,37.58173 182.39799,120.85858 l 38.2206,25.6703 -21.84128,10.3273 c -26.87439,12.70714 -44.8197,22.1529 -49.38555,25.99483 -2.09825,1.76556 -3.45943,4.03814 -3.45943,5.77577 0,3.709 10.34041,31.49395 33.90671,91.10823 55.63884,140.74631 115.61725,293.54722 149.18339,380.05944 20.04211,51.65584 22.98923,60.07769 22.37269,63.93334 -0.67361,4.21251 -17.25338,48.95956 -25.32151,68.34007 -8.72788,20.96531 -22.86094,28.41451 -36.61945,19.30131 z"
     id="path2"
     transform="scale(0.75)" />
  <path
     style="fill:#2ad4ff;stroke-width:1.16995"
     d="m 898.92287,1013.7385 c -6.15667,-3.2525 -10.89603,-9.5933 -15.69276,-20.9954 C 878.99741,982.68175 826.62499,843.1854 746.82954,629.43388 692.655,484.31418 690.21916,478.11775 686.71979,476.52333 c -5.516,-2.51326 -8.21972,-0.47214 -12.31016,9.2933 -6.09695,14.5557 -28.42652,73.76078 -88.91137,235.74134 -31.17411,83.48538 -56.94945,151.79592 -57.27852,151.8012 -0.61049,0.01 -39.6363,-101.04843 -45.1765,-116.98556 l -3.05032,-8.77464 18.40403,-48.55298 C 523.86837,631.84801 582.19496,475.44 603.32474,417.67266 c 28.64533,-78.31435 39.66628,-107.33826 42.79945,-112.71335 4.23517,-7.26557 13.57467,-16.03275 20.89431,-19.61392 5.73482,-2.80578 7.26803,-3.03838 17.1727,-2.60518 9.38199,0.41033 11.6658,0.93871 16.6288,3.84722 9.03711,5.29611 16.65517,13.70942 21.00266,23.19516 2.12857,4.64431 22.94856,59.51258 46.26665,121.92949 100.2278,268.28578 117.11746,313.24924 121.56734,323.63535 6.76663,15.79342 13.24175,20.61749 20.26189,15.09545 4.54102,-3.57198 10.89989,-16.91676 30.11856,-63.20723 31.7694,-76.5204 122.6734,-305.75805 123.685,-311.90345 0.8411,-5.10924 -2.2648,-10.38056 -8.1399,-13.81513 -2.7312,-1.59663 -18.391,-9.31319 -34.7996,-17.14791 -16.4085,-7.83471 -30.49191,-14.77378 -31.29634,-15.42017 -1.0852,-0.87197 0.72614,-2.68323 7.01971,-7.01939 22.78123,-15.69589 212.87873,-141.28293 213.85593,-141.28293 0.6176,0 1.1228,0.74054 1.1228,1.64564 0,0.9051 2.0896,17.09431 4.6434,35.97601 14.3251,105.91029 29.2852,219.03369 29.2852,221.44543 v 2.77489 l -8.4821,-3.57457 c -21.3915,-9.01485 -62.7837,-24.44543 -67.243,-25.06752 -4.4154,-0.61596 -5.2912,-0.3169 -8.2044,2.80165 -1.9153,2.05042 -6.722,11.89181 -11.647,23.84654 -13.6664,33.17338 -88.7859,219.37744 -150.28038,372.51069 -67.16026,167.24207 -68.06908,169.40277 -73.57865,174.93187 -8.10431,8.133 -18.44424,10.3502 -27.0549,5.8012 z"
     id="path3"
     transform="scale(0.75)" />
  <path
     style="fill:#2ad4ff;stroke-width:1.16995"
     d="m 449.26135,1013.3214 c -7.66991,-3.617 -10.12714,-6.4662 -15.26596,-17.70122 -4.34215,-9.49329 -83.77647,-205.20866 -142.68719,-351.56191 -10.74907,-26.70414 -23.38236,-58.02959 -28.07398,-69.61211 -4.69162,-11.58252 -14.6975,-36.32699 -22.23529,-54.98772 -29.67395,-73.46157 -34.17028,-83.30907 -39.28941,-86.04875 -3.58766,-1.92006 -8.29104,-0.48635 -42.86945,13.06774 -16.57998,6.49905 -31.4094,12.30205 -32.95427,12.89558 l -2.80886,1.07915 0.7071,-9.69023 c 0.98376,-13.48172 31.9276,-247.68846 32.84647,-248.60733 0.69046,-0.69046 92.73795,60.22384 189.83988,125.6304 l 29.41355,19.81257 -19.46896,9.25458 c -26.07512,12.39482 -47.58169,23.77297 -51.1027,27.03613 -6.07648,5.6315 -10.70401,-7.42535 70.11388,197.83058 82.97,210.72171 122.30016,311.66927 128.98071,331.05101 3.99464,11.58931 4.316,9.96786 -9.09198,45.87435 -15.46381,41.41198 -20.60577,50.62998 -30.83413,55.27668 -6.13623,2.7876 -8.21002,2.7059 -15.21941,-0.5995 z"
     id="path4"
     transform="scale(0.75)" />
  <path
     style="fill:#ffff00;stroke-width:1.16995"
     d="m 898.36574,1012.7561 c -4.20181,-2.6399 -8.43104,-7.9384 -11.98359,-15.01321 -2.80734,-5.59077 -17.19512,-43.21316 -48.45876,-126.71404 C 825.99768,839.17692 791.50693,747.04324 761.2773,666.28735 685.58917,464.09302 690.28443,475.58526 683.36426,475.58526 c -6.90002,0 1.13549,-19.90372 -88.48022,219.16286 -35.89846,95.76585 -65.58067,174.43046 -65.96045,174.81025 -0.37978,0.37978 -0.99836,0.38267 -1.37461,0.006 -0.87748,-0.87747 -23.44551,-58.80156 -36.78579,-94.41596 l -10.27755,-27.43786 2.34631,-5.90575 c 9.23871,-23.25426 83.07681,-220.88077 124.38227,-332.90718 39.47549,-107.06326 38.29916,-104.3098 48.80941,-114.24995 9.70926,-9.18262 13.9975,-10.93486 26.76077,-10.93486 13.02653,0 18.33994,2.19812 27.60177,11.41864 10.0111,9.96644 3.80109,-5.4489 82.82821,205.60736 108.76999,290.48997 97.13457,260.42948 103.69647,267.90308 2.81542,3.20658 4.49538,4.11063 7.63868,4.11063 5.50957,0 8.71881,-3.7461 15.7105,-18.33864 11.11839,-23.2055 61.47294,-147.06931 110.49907,-271.80932 29.8022,-75.82755 33.3117,-85.26178 33.3117,-89.5479 0,-7.5432 -4.0354,-10.3454 -40.2362,-27.93976 -18.4089,-8.94713 -33.4707,-16.71457 -33.4707,-17.26098 0,-1.46111 213.9054,-143.52124 219.1164,-145.52087 1.5867,-0.60889 2.0044,-0.1128 2.0044,2.38063 0,1.73239 6.3011,50.35633 14.0025,108.05319 16.4362,123.13607 19.717,148.11898 19.4879,148.39792 -0.093,0.11349 -9.1145,-3.36141 -20.0473,-7.72198 -30.8538,-12.30611 -52.7726,-19.97821 -57.0767,-19.97821 -5.0985,0 -7.8411,2.9773 -12.9551,14.0642 -4.9642,10.76185 -37.3565,90.72189 -134.1191,331.07147 -96.69578,240.18343 -90.69559,226.17543 -99.48999,232.26993 -6.47022,4.4839 -17.3583,5.3786 -22.92117,1.8835 z"
     id="path5"
     transform="scale(0.75)" />
</svg>
